PathFileType	4	(X/Y/Z)	C:\Users\WrightLab\Desktop\Jo\P3_27.trc
DataRate	CameraRate	NumFrames	NumMarkers	Units	OrigDataRate	OrigDataStartFrame	OrigNumFrames
100.00	100.00	       13	19	mm	100.00	206	       549
Frame#	Time	Headset_Front			Headset_Back			Headset_Left			Headset_Right			Left_Shoulder			Right_Shoulder			Sternum			C7			Left Elbow			Right Elbow			Left Wrist			Right Wrist			Left ASIS			Right ASIS			S2			Left Knee			Right Knee			Left Ankle			Right Ankle			
		X1	Y1	Z1	X2	Y2	Z2	X3	Y3	Z3	X4	Y4	Z4	X5	Y5	Z5	X6	Y6	Z6	X7	Y7	Z7	X8	Y8	Z8	X9	Y9	Z9	X10	Y10	Z10	X11	Y11	Z11	X12	Y12	Z12	X13	Y13	Z13	X14	Y14	Z14	X15	Y15	Z15	X16	Y16	Z16	X17	Y17	Z17	X18	Y18	Z18	X19	Y19	Z19	

206	2.050	-423.83908	1415.87219	98.24463	-341.84546	1616.43445	309.04706	-473.90387	1528.39636	267.93359	-295.19492	1486.43140	136.15024	-465.16281	1323.98987	441.42639	-168.21309	1332.10083	237.66772	-389.71173	1205.47754	238.94119	-289.14334	1388.73181	372.48389	-488.57727	985.92505	492.21329	-85.26584	1007.25891	120.39133	-530.29114	804.78802	402.06619	-177.78546	894.14050	-54.26056	-450.38782	857.02142	314.10837	-241.61247	867.04236	173.10396	-229.15858	931.66089	421.90598	-529.90118	466.08505	250.89270	-192.87602	433.89746	261.04440	-534.28693	130.18852	258.91202	-114.24728	121.86474	367.64026	
207	2.060	-430.13376	1414.06885	90.94337	-348.54395	1616.08911	302.15295	-482.06677	1527.73596	260.21173	-301.71313	1484.78137	129.10080	-472.48480	1322.19739	433.65054	-174.80244	1330.81555	230.08589	-395.79150	1203.91235	231.84862	-295.45972	1387.17871	365.37604	-494.00638	984.27441	485.88019	-90.85983	1005.98364	112.63246	-535.54260	802.76965	397.24985	-182.65773	892.85071	-62.08982	-456.62088	855.38214	306.22537	-247.39497	865.88232	166.13130	-235.75226	929.80444	415.26694	-535.22278	463.70956	245.91876	-195.04045	433.06134	257.64502	-551.72424	129.34993	241.88974	-114.66959	122.21847	367.16943	
208	2.070	-436.00281	1412.75415	83.48387	-355.36310	1614.09424	294.62292	-488.17862	1526.33850	252.83961	-307.43237	1482.64648	121.81143	-479.15277	1320.95679	425.36298	-180.97849	1329.25293	224.32655	-402.70142	1202.52917	224.02484	-302.61374	1385.72803	358.02844	-500.85693	983.14972	479.13342	-96.16538	1005.65442	105.83393	-540.80194	800.45880	391.83469	-187.62146	891.34253	-69.80145	-463.01236	853.91968	298.08191	-251.71971	863.63477	157.96504	-242.33409	928.33203	408.15308	-540.78784	461.91687	241.88173	-197.72174	431.86108	253.37233	-568.29230	129.65883	225.99115	-114.95521	122.34335	366.85095	
209	2.080	-441.76523	1410.92078	76.54367	-360.47733	1612.31274	286.84500	-492.74091	1524.56287	245.32700	-313.21561	1482.00610	114.63902	-486.72504	1319.62097	417.79791	-187.15329	1327.58508	217.53484	-408.68600	1201.10242	216.56834	-309.59201	1384.16724	351.29443	-507.19870	981.73035	472.54578	-101.83191	1004.13586	98.90674	-546.37494	798.38483	387.31552	-193.04869	890.72479	-76.24842	-469.19101	852.00537	289.20053				-249.02458	926.85010	401.39948	-547.08490	459.83093	236.85127	-200.28563	431.28018	249.26067	-585.55463	131.47449	213.22639	-115.69518	123.02853	366.13702	
210	2.090	-448.09662	1409.86865	68.74284	-367.77957	1612.16882	280.75552	-499.13486	1523.10486	237.58650	-319.27335	1480.20007	107.80225	-493.90875	1318.12012	410.00455	-193.49226	1326.34534	211.68561	-414.93695	1199.61255	208.88896	-316.07138	1382.47522	344.25439	-513.32520	980.35547	465.39972	-106.89809	1003.10150	92.11122	-551.64105	795.96002	381.96860	-198.16173	889.35999	-82.55234	-475.85220	850.13617	280.75699				-256.08456	924.37402	394.05914	-553.34473	458.35507	231.56508	-203.09055	429.81253	245.47165	-599.89246	132.03548	200.23672	-116.41117	123.85766	365.22589	
211	2.100	-453.93808	1408.99023	61.77449	-374.42688	1610.84338	273.75125	-507.69733	1522.67896	230.20474	-325.40985	1478.92529	101.41360	-501.26648	1316.70105	401.95007	-200.12285	1324.87500	204.63730	-421.78253	1198.53857	201.45667	-324.04584	1381.37036	337.27328	-520.45032	979.69232	458.75293	-112.59531	1002.35126	85.63313	-557.38232	793.44019	376.82571	-202.25417	887.65265	-89.35588	-482.30316	848.41614	272.10825				-264.58234	923.14655	387.50827	-559.70111	457.41104	225.18005	-206.55644	428.77164	242.26567	-612.50903	132.89441	185.78922	-117.35500	124.54098	364.06540	
212	2.110	-459.78217	1407.70935	54.07824	-381.34659	1609.46143	266.83063	-514.00159	1521.59949	222.56064	-331.65060	1477.87122	94.75437	-508.75696	1315.45203	394.19214	-206.75142	1323.12915	197.81049	-428.35367	1197.61133	193.86951	-330.68152	1379.89697	330.14383	-527.31055	978.15344	451.84866	-118.40444	1000.48755	79.78249	-563.07343	791.48566	371.45358	-206.69485	886.15979	-96.15378	-488.75244	846.59741	263.01736				-271.48425	921.45630	380.18216	-566.04480	456.41315	218.24066	-209.14236	428.53354	237.47028	-622.87335	132.46150	177.68513	-117.54883	125.69653	362.80646	
213	2.120	-465.53952	1406.73340	46.80529	-387.77603	1608.37158	259.77271	-518.83588	1519.98389	214.98825	-337.67294	1476.75891	87.12096	-516.19171	1313.78369	386.01401	-212.98329	1321.76868	191.22054	-434.66034	1196.17468	185.75711	-337.68442	1377.91492	323.26196	-534.42981	976.90015	445.05856	-124.26279	999.29163	73.23376	-568.86108	789.37866	365.53555	-211.07568	884.25104	-102.20115	-495.49155	844.81482	254.19438				-279.53839	920.49341	372.71387	-572.78101	455.69083	210.36491	-212.60606	427.54324	233.61342	-631.81244	131.92737	168.67239	-118.90129	126.71013	362.33411	
214	2.130	-471.94409	1406.12244	38.57948	-394.47253	1607.22498	252.71687	-527.28729	1519.54663	207.29918	-343.37836	1475.47949	80.50662	-523.91461	1312.40710	378.18152	-219.57220	1320.61438	185.02251	-441.21384	1195.48840	177.76871	-345.69455	1376.80249	315.96149	-541.93250	975.55273	437.91656	-130.12193	998.02600	67.46512	-575.35748	787.20172	360.44199	-215.71432	882.56006	-108.66270	-502.33505	843.37024	244.97987				-287.34467	919.01172	365.50858	-579.31335	454.67252	201.99458	-217.29872	426.61267	229.88806	-638.59644	130.45981	162.02452	-119.87761	128.43677	360.67447	
215	2.140	-477.61133	1405.48816	31.02056	-401.22888	1606.20618	245.79237	-532.36169	1518.19287	199.72633	-349.45291	1474.80359	73.70521	-531.88721	1310.97522	370.18930	-226.00807	1319.02136	178.97256	-448.25772	1194.34167	170.32689	-352.58234	1375.76550	308.91797	-549.49182	974.34277	430.85663	-135.85670	996.51697	62.05896	-581.60413	785.07928	354.54825	-219.88141	881.09851	-114.92429	-509.42191	841.74371	235.98297	-291.48370	851.87976	108.11278	-295.03644	917.87408	358.27829	-586.01526	453.34552	192.72601	-221.75374	425.38739	224.41200	-643.26312	128.10176	157.68658	-120.96185	130.32770	359.74280	
216	2.150	-482.97098	1404.10388	23.98171	-407.39755	1603.73706	238.14680	-540.22406	1517.64587	191.76974	-355.77457	1474.04395	66.67834	-540.00421	1310.04004	362.20050	-232.76939	1317.83667	172.75908	-455.02826	1193.01965	162.42992	-360.08423	1374.22644	302.09448	-557.05243	973.00336	423.68765	-141.93079	995.55627	57.18692	-588.00201	783.17474	348.66864	-224.05724	878.96985	-120.36013	-516.88513	841.01740	227.42882	-298.11609	850.14362	98.73347	-303.06808	917.40228	350.18225	-592.97491	452.04871	182.96614	-227.25832	424.18640	219.26085	-645.10687	124.52731	154.74957	-122.97213	131.48242	358.29620	
217	2.160	-489.49182	1404.02588	15.88754	-413.94077	1602.63342	231.11771	-546.88312	1516.98816	183.84058	-362.03799	1472.90198	59.81672	-548.22339	1308.97107	354.14529	-239.95195	1316.74585	165.97429	-462.26630	1192.86768	154.65605	-366.99722	1373.15125	294.99054	-565.22656	972.60498	416.61032	-147.81926	993.95551	51.08144	-594.52362	781.55872	342.35187	-228.38255	876.74799	-126.12778	-524.44830	839.97083	218.31465				-310.88940	916.26477	343.27237	-599.01587	450.17310	173.27209	-232.47427	423.02698	213.77675	-646.38531	121.67231	152.19852	-123.90748	133.65683	356.79074	
218	2.170	-494.95697	1403.18213	8.29137	-421.50397	1602.78174	224.05173	-552.02258	1516.16089	175.81958	-367.80151	1472.80200	52.52857	-556.10443	1307.83508	345.70639	-246.77084	1315.81384	160.02243	-469.31415	1191.63647	147.04106	-375.54852	1373.01355	288.74515	-572.83246	971.50500	408.57147	-153.94687	993.12836	46.26470	-601.23083	779.96558	335.89236	-232.59230	875.16431	-133.34265	-532.43494	839.35974	209.77893				-319.69107	915.94055	335.39175	-605.54254	448.55435	165.35883	-238.83582	422.15942	207.42804	-647.55188	120.54378	147.74046	-127.34194	135.54698	355.59711	
